<svg width="46" height="46" viewBox="0 0 46 46" fill="none" xmlns="http://www.w3.org/2000/svg">
<g clip-path="url(#clip0_1458_2800)">
<path d="M34.5 14.375H23V11.5H34.5V14.375ZM23 23H34.5V25.875H23V23ZM25.9424 43.125L28.8174 46H5.75V0H40.25V28.8174L37.375 31.6924V2.875H8.625V43.125H25.9424ZM21.1357 9.63574L15.8125 14.959L11.9268 11.0732L13.9482 9.05176L15.8125 10.916L19.1143 7.61426L21.1357 9.63574ZM21.1357 21.1357L15.8125 26.459L11.9268 22.5732L13.9482 20.5518L15.8125 22.416L19.1143 19.1143L21.1357 21.1357ZM15.8125 33.916L19.1143 30.6143L21.1357 32.6357L15.8125 37.959L11.9268 34.0732L13.9482 32.0518L15.8125 33.916ZM45.5732 32.6357L33.0625 45.1689L27.0205 39.1045L29.042 37.083L33.0625 41.0811L43.5518 30.6143L45.5732 32.6357Z" fill="white" style="fill:white;fill:white;fill-opacity:1;"/>
</g>
<defs>
<clipPath id="clip0_1458_2800">
<rect width="46" height="46" fill="white" style="fill:white;fill:white;fill-opacity:1;"/>
</clipPath>
</defs>
</svg>
